<svg id="Icons" height="512" viewBox="0 0 74 74" width="512" xmlns="http://www.w3.org/2000/svg"><path d="m30.968 53.973h-23.5a1 1 0 0 1 -1-1v-50a1 1 0 0 1 1-1h25.01a1 1 0 0 1 .707.292l11.77 11.76a1 1 0 0 1 .293.707v19.5a1 1 0 0 1 -2 0v-19.085l-11.185-11.174h-23.595v48h22.5a1 1 0 1 1 0 2z"/><path d="m44.245 15.745h-11.765a1 1 0 0 1 -1-1v-11.772a1 1 0 1 1 2 0v10.772h10.765a1 1 0 0 1 0 2z"/><path d="m36.388 36.783h-22.761a1 1 0 0 1 0-2h22.761a1 1 0 0 1 0 2z"/><path d="m38.09 28.973h-24.463a1 1 0 0 1 0-2h24.463a1 1 0 0 1 0 2z"/><path d="m30.158 44.593h-16.531a1 1 0 0 1 0-2h16.531a1 1 0 0 1 0 2z"/><path d="m38.09 21.163h-24.463a1 1 0 1 1 0-2h24.463a1 1 0 0 1 0 2z"/><path d="m28.064 13.354h-14.437a1 1 0 0 1 0-2h14.437a1 1 0 0 1 0 2z"/><path d="m42.729 61.3a14.077 14.077 0 1 1 9.959-4.118 14.037 14.037 0 0 1 -9.959 4.118zm0-26.156a12.079 12.079 0 1 0 8.545 3.534 12.046 12.046 0 0 0 -8.545-3.531z"/><path d="m62.343 72.025a5.174 5.174 0 0 1 -3.668-1.517l-10.85-10.851a1 1 0 0 1 1.414-1.414l10.85 10.851a3.188 3.188 0 1 0 4.511-4.508l-10.854-10.851a1 1 0 0 1 1.414-1.414l10.851 10.851a5.185 5.185 0 0 1 -3.668 8.853z"/></svg>